# File created by Blade
# Date/Time:  Tue Jan 27 20:12:02 2015
# Frame Rate: 120.000 fps
#------------------------------------------------------
:FULLY-SPECIFIED
:DEGREES
1794
root 8.863349 32.252371 -4.561489 4.107789 -7.456051 -1.422242
Spine 1.991789 10.848658 -3.387634
Head 13.083372 -12.770910 2.216074
LeftShoulder -17.418828 2.567557 28.303385
LeftArm -20.359113 -39.234891 -65.216185
LeftForeArm -8.837224 0.000000 98.090688
LeftHand 18.240220 0.000000 9.715079
LeftHandThumb1 -26.253704 0.000000 33.147579
RightShoulder -20.063731 -23.139228 -23.296967
RightArm 10.056460 -38.938840 89.345231
RightForeArm -23.576358 0.000000 103.295592
RightHand 18.459004 -0.000000 0.905033
RightHandThumb1 -24.326973 -0.000000 -32.862282
LeftUpLeg 1.384583 0.989535 -8.204363
LeftLeg -4.577131 -0.000000 0.000000
LeftFoot -14.547269 20.101297 -15.666602
LeftToeBase 23.349323 -0.000000 -0.000000
RightUpLeg -1.562027 -49.685454 -13.313614
RightLeg 82.177065 -0.000000 -0.000000
RightFoot 25.871382 -20.137294 39.798229
RightToeBase 20.659003 -0.000000 -0.000000
1795
root 8.858606 32.258484 -4.550497 4.064035 -7.618944 -1.499729
Spine 2.007629 10.996244 -3.373202
Head 13.193550 -12.730868 2.209056
LeftShoulder -17.435487 2.626058 28.289315
LeftArm -20.419498 -39.347991 -65.145554
LeftForeArm -8.823175 -0.000000 98.129501
LeftHand 18.250916 -0.000000 9.803298
LeftHandThumb1 -26.253704 0.000000 33.147579
RightShoulder -20.078320 -23.166202 -23.287573
RightArm 10.088857 -39.015933 89.334458
RightForeArm -23.580663 0.000000 103.331686
RightHand 18.398324 -0.000000 0.909224
RightHandThumb1 -24.326973 -0.000000 -32.862282
LeftUpLeg 1.470650 1.090686 -8.129899
LeftLeg -4.602057 -0.000000 0.000000
LeftFoot -14.649576 20.166779 -15.781972
LeftToeBase 23.511435 -0.000000 -0.000000
RightUpLeg -1.150663 -51.233293 -13.975686
RightLeg 82.104588 -0.000000 -0.000000
RightFoot 26.032101 -19.971697 39.687070
RightToeBase 19.090205 -0.000000 -0.000000
1796
root 8.855225 32.262650 -4.539989 4.018533 -7.760928 -1.567017
Spine 2.032211 11.095969 -3.345167
Head 13.272671 -12.731951 2.164385
LeftShoulder -17.453935 2.661015 28.264060
LeftArm -20.528250 -39.440559 -65.028666
LeftForeArm -8.842948 -0.000000 98.171918
LeftHand 18.231493 -0.000000 9.897910
LeftHandThumb1 -26.253704 0.000000 33.147579
RightShoulder -20.045809 -23.171992 -23.335580
RightArm 10.062918 -39.071400 89.397486
RightForeArm -23.624345 -0.000000 103.368407
RightHand 18.388779 -0.000000 0.915127
RightHandThumb1 -24.326973 -0.000000 -32.862282
LeftUpLeg 1.590471 1.020797 -8.065086
LeftLeg -4.677492 -0.000000 0.000000
LeftFoot -14.758070 20.329980 -15.924850
LeftToeBase 23.585881 -0.000000 -0.000000
RightUpLeg -0.678729 -52.768875 -14.686674
RightLeg 82.033020 -0.000000 -0.000000
RightFoot 26.100210 -19.894470 39.752006
RightToeBase 19.335600 -0.000000 -0.000000
1797
root 8.850951 32.266620 -4.530312 3.969920 -7.863443 -1.625707
Spine 2.080573 11.177135 -3.343301
Head 13.316089 -12.614332 2.141272
LeftShoulder -17.482478 2.717804 28.258529
LeftArm -20.576577 -39.525486 -64.971031
LeftForeArm -8.902746 -0.000000 98.236665
LeftHand 18.208644 -0.000000 9.833562
LeftHandThumb1 -26.253704 0.000000 33.147579
RightShoulder -20.048819 -23.177272 -23.337073
RightArm 10.048484 -39.121642 89.423242
RightForeArm -23.622649 -0.000000 103.406884
RightHand 18.411026 -0.000000 0.919102
RightHandThumb1 -24.326973 -0.000000 -32.862282
LeftUpLeg 1.696030 1.015255 -8.001687
LeftLeg -4.739399 -0.000000 0.000000
LeftFoot -14.759021 20.440046 -15.938994
LeftToeBase 23.626200 -0.000000 -0.000000
RightUpLeg -0.159392 -54.307651 -15.430367
RightLeg 81.972551 -0.000000 -0.000000
RightFoot 26.127559 -19.838719 39.890792
RightToeBase 19.052677 -0.000000 -0.000000
1798
root 8.847722 32.269200 -4.520147 3.925918 -7.959551 -1.677702
Spine 2.121178 11.245274 -3.334952
Head 13.352954 -12.523700 2.097173
LeftShoulder -17.499879 2.783897 28.245800
LeftArm -20.613031 -39.636670 -64.920559
LeftForeArm -8.938671 -0.000000 98.275783
LeftHand 18.292811 -0.000000 9.756450
LeftHandThumb1 -26.253704 0.000000 33.147579
RightShoulder -20.041197 -23.204382 -23.360069
RightArm 10.044150 -39.164348 89.458524
RightForeArm -23.635575 0.000000 103.447862
RightHand 18.376672 0.000000 0.960764
RightHandThumb1 -24.326973 -0.000000 -32.862282
LeftUpLeg 1.781373 1.067590 -7.949804
LeftLeg -4.764841 -0.000000 0.000000
LeftFoot -14.803303 20.453141 -15.984971
LeftToeBase 23.563452 -0.000000 -0.000000
RightUpLeg 0.394764 -55.835570 -16.193196
RightLeg 81.889956 -0.000000 -0.000000
RightFoot 26.276983 -19.669428 39.743069
RightToeBase 19.429636 -0.000000 -0.000000
1799
root 8.843478 32.271131 -4.505954 3.866188 -8.063365 -1.728115
Spine 2.174199 11.307573 -3.328605
Head 13.361131 -12.399372 2.068874
LeftShoulder -17.531250 2.790465 28.219802
LeftArm -20.746788 -39.667328 -64.765887
LeftForeArm -9.018780 -0.000000 98.369804
LeftHand 18.268545 -0.000000 9.727681
LeftHandThumb1 -26.253704 0.000000 33.147579
RightShoulder -20.027775 -23.209233 -23.374224
RightArm 10.014311 -39.220303 89.496379
RightForeArm -23.650969 -0.000000 103.483576
RightHand 18.376573 0.000000 0.951738
RightHandThumb1 -24.326973 -0.000000 -32.862282
LeftUpLeg 1.904836 1.146556 -7.896806
LeftLeg -4.816748 -0.000000 0.000000
LeftFoot -14.838400 20.437823 -16.015433
LeftToeBase 23.579534 -0.000000 -0.000000
RightUpLeg 1.033832 -57.291362 -17.008172
RightLeg 81.812804 -0.000000 -0.000000
RightFoot 26.323283 -19.577536 39.835110
RightToeBase 20.391699 -0.000000 -0.000000
